solid CATIA STL
  facet normal  0.000000e+000 -1.000000e+000  3.840772e-016
    outer loop
      vertex  4.000000e+000  1.421085e-014  3.700000e+001
      vertex  0.000000e+000  1.421085e-014  3.700000e+001
      vertex  4.000000e+000  0.000000e+000  0.000000e+000
    endloop
  endfacet
  facet normal  5.619558e-014 -1.000000e+000  6.459275e-015
    outer loop
      vertex  4.000000e+000  0.000000e+000  0.000000e+000
      vertex  0.000000e+000  1.421085e-014  3.700000e+001
      vertex  0.000000e+000  0.000000e+000  3.479993e+001
    endloop
  endfacet
  facet normal  0.000000e+000 -1.000000e+000  -0.000000e+000
    outer loop
      vertex  4.000000e+000  0.000000e+000  0.000000e+000
      vertex  0.000000e+000  0.000000e+000  3.479993e+001
      vertex -5.000000e+001  0.000000e+000  0.000000e+000
    endloop
  endfacet
  facet normal  0.000000e+000 -1.000000e+000  0.000000e+000
    outer loop
      vertex -5.000000e+001  0.000000e+000  0.000000e+000
      vertex  0.000000e+000  0.000000e+000  3.479993e+001
      vertex -5.000000e+001  0.000000e+000  2.500000e+000
    endloop
  endfacet
  facet normal  0.000000e+000  1.000000e+000  -0.000000e+000
    outer loop
      vertex  0.000000e+000  7.000000e+000  3.479993e+001
      vertex  0.000000e+000  7.000000e+000  5.000000e+000
      vertex -5.000000e+001  7.000000e+000  2.500000e+000
    endloop
  endfacet
  facet normal -5.426234e-001  0.000000e+000  8.399761e-001
    outer loop
      vertex  0.000000e+000  0.000000e+000  3.479993e+001
      vertex  0.000000e+000  7.000000e+000  3.479993e+001
      vertex -5.000000e+001  0.000000e+000  2.500000e+000
    endloop
  endfacet
  facet normal -5.426234e-001  0.000000e+000  8.399761e-001
    outer loop
      vertex -5.000000e+001  0.000000e+000  2.500000e+000
      vertex  0.000000e+000  7.000000e+000  3.479993e+001
      vertex -5.000000e+001  7.000000e+000  2.500000e+000
    endloop
  endfacet
  facet normal -1.000000e+000  -0.000000e+000  0.000000e+000
    outer loop
      vertex  0.000000e+000  1.400000e+001  2.595000e+001
      vertex  0.000000e+000  1.255043e+001  1.444957e+001
      vertex  0.000000e+000  1.222465e+001  1.402500e+001
    endloop
  endfacet
  facet normal -1.000000e+000  -0.000000e+000  0.000000e+000
    outer loop
      vertex  0.000000e+000  1.400000e+001  2.595000e+001
      vertex  0.000000e+000  1.297500e+001  1.477535e+001
      vertex  0.000000e+000  1.255043e+001  1.444957e+001
    endloop
  endfacet
  facet normal -1.000000e+000  -0.000000e+000  0.000000e+000
    outer loop
      vertex  0.000000e+000  1.400000e+001  2.595000e+001
      vertex  0.000000e+000  1.346942e+001  1.498015e+001
      vertex  0.000000e+000  1.297500e+001  1.477535e+001
    endloop
  endfacet
  facet normal -1.000000e+000  -0.000000e+000  0.000000e+000
    outer loop
      vertex  0.000000e+000  1.400000e+001  2.595000e+001
      vertex  0.000000e+000  1.400000e+001  1.505000e+001
      vertex  0.000000e+000  1.346942e+001  1.498015e+001
    endloop
  endfacet
  facet normal -1.000000e+000  0.000000e+000  0.000000e+000
    outer loop
      vertex  0.000000e+000  2.800000e+001  3.479993e+001
      vertex  0.000000e+000  2.100000e+001  3.479993e+001
      vertex  0.000000e+000  2.800000e+001  3.700000e+001
    endloop
  endfacet
  facet normal -1.000000e+000  0.000000e+000  0.000000e+000
    outer loop
      vertex  0.000000e+000  1.544957e+001  1.444957e+001
      vertex  0.000000e+000  1.400000e+001  2.595000e+001
      vertex  0.000000e+000  1.577535e+001  1.402500e+001
    endloop
  endfacet
  facet normal -1.000000e+000  0.000000e+000  0.000000e+000
    outer loop
      vertex  0.000000e+000  1.502500e+001  1.477535e+001
      vertex  0.000000e+000  1.400000e+001  2.595000e+001
      vertex  0.000000e+000  1.544957e+001  1.444957e+001
    endloop
  endfacet
  facet normal -1.000000e+000  0.000000e+000  0.000000e+000
    outer loop
      vertex  0.000000e+000  1.453058e+001  1.498015e+001
      vertex  0.000000e+000  1.400000e+001  2.595000e+001
      vertex  0.000000e+000  1.502500e+001  1.477535e+001
    endloop
  endfacet
  facet normal -1.000000e+000  0.000000e+000  0.000000e+000
    outer loop
      vertex  0.000000e+000  1.400000e+001  1.505000e+001
      vertex  0.000000e+000  1.400000e+001  2.595000e+001
      vertex  0.000000e+000  1.453058e+001  1.498015e+001
    endloop
  endfacet
  facet normal -1.000000e+000  0.000000e+000  0.000000e+000
    outer loop
      vertex  0.000000e+000  7.000000e+000  5.000000e+000
      vertex  0.000000e+000  1.201985e+001  2.853058e+001
      vertex  0.000000e+000  1.195000e+001  2.800000e+001
    endloop
  endfacet
  facet normal -1.000000e+000  0.000000e+000  -0.000000e+000
    outer loop
      vertex  0.000000e+000  7.000000e+000  5.000000e+000
      vertex  0.000000e+000  1.195000e+001  2.800000e+001
      vertex  0.000000e+000  1.201985e+001  2.746942e+001
    endloop
  endfacet
  facet normal -9.999999e-001  0.000000e+000  -0.000000e+000
    outer loop
      vertex  0.000000e+000  7.000000e+000  5.000000e+000
      vertex  0.000000e+000  1.201985e+001  2.746942e+001
      vertex  0.000000e+000  1.222465e+001  2.697500e+001
    endloop
  endfacet
  facet normal -1.000000e+000  0.000000e+000  -0.000000e+000
    outer loop
      vertex  0.000000e+000  7.000000e+000  5.000000e+000
      vertex  0.000000e+000  1.222465e+001  2.697500e+001
      vertex  0.000000e+000  1.255043e+001  2.655043e+001
    endloop
  endfacet
  facet normal -1.000000e+000  0.000000e+000  -0.000000e+000
    outer loop
      vertex  0.000000e+000  7.000000e+000  5.000000e+000
      vertex  0.000000e+000  1.255043e+001  2.655043e+001
      vertex  0.000000e+000  1.297500e+001  2.622465e+001
    endloop
  endfacet
  facet normal -1.000000e+000  0.000000e+000  -0.000000e+000
    outer loop
      vertex  0.000000e+000  7.000000e+000  5.000000e+000
      vertex  0.000000e+000  1.297500e+001  2.622465e+001
      vertex  0.000000e+000  1.346942e+001  2.601985e+001
    endloop
  endfacet
  facet normal -1.000000e+000  0.000000e+000  -0.000000e+000
    outer loop
      vertex  0.000000e+000  7.000000e+000  5.000000e+000
      vertex  0.000000e+000  1.346942e+001  2.601985e+001
      vertex  0.000000e+000  1.400000e+001  2.595000e+001
    endloop
  endfacet
  facet normal -1.000000e+000  0.000000e+000  0.000000e+000
    outer loop
      vertex  0.000000e+000  7.000000e+000  5.000000e+000
      vertex  0.000000e+000  1.400000e+001  2.595000e+001
      vertex  0.000000e+000  1.222465e+001  1.402500e+001
    endloop
  endfacet
  facet normal -1.000000e+000  0.000000e+000  0.000000e+000
    outer loop
      vertex  0.000000e+000  7.000000e+000  5.000000e+000
      vertex  0.000000e+000  1.222465e+001  1.402500e+001
      vertex  0.000000e+000  1.201985e+001  1.353058e+001
    endloop
  endfacet
  facet normal -1.000000e+000  0.000000e+000  0.000000e+000
    outer loop
      vertex  0.000000e+000  7.000000e+000  5.000000e+000
      vertex  0.000000e+000  1.201985e+001  1.353058e+001
      vertex  0.000000e+000  1.195000e+001  1.300000e+001
    endloop
  endfacet
  facet normal -9.999999e-001  0.000000e+000  -0.000000e+000
    outer loop
      vertex  0.000000e+000  7.000000e+000  5.000000e+000
      vertex  0.000000e+000  1.195000e+001  1.300000e+001
      vertex  0.000000e+000  1.201985e+001  1.246942e+001
    endloop
  endfacet
  facet normal -1.000000e+000  0.000000e+000  -0.000000e+000
    outer loop
      vertex  0.000000e+000  7.000000e+000  5.000000e+000
      vertex  0.000000e+000  1.201985e+001  1.246942e+001
      vertex  0.000000e+000  1.222465e+001  1.197500e+001
    endloop
  endfacet
  facet normal -1.000000e+000  0.000000e+000  -0.000000e+000
    outer loop
      vertex  0.000000e+000  7.000000e+000  5.000000e+000
      vertex  0.000000e+000  1.222465e+001  1.197500e+001
      vertex  0.000000e+000  1.255043e+001  1.155043e+001
    endloop
  endfacet
  facet normal -1.000000e+000  0.000000e+000  -0.000000e+000
    outer loop
      vertex  0.000000e+000  7.000000e+000  5.000000e+000
      vertex  0.000000e+000  1.255043e+001  1.155043e+001
      vertex  0.000000e+000  1.297500e+001  1.122465e+001
    endloop
  endfacet
  facet normal -1.000000e+000  0.000000e+000  -0.000000e+000
    outer loop
      vertex  0.000000e+000  7.000000e+000  5.000000e+000
      vertex  0.000000e+000  1.297500e+001  1.122465e+001
      vertex  0.000000e+000  1.346942e+001  1.101985e+001
    endloop
  endfacet
  facet normal -1.000000e+000  0.000000e+000  -0.000000e+000
    outer loop
      vertex  0.000000e+000  7.000000e+000  5.000000e+000
      vertex  0.000000e+000  1.346942e+001  1.101985e+001
      vertex  0.000000e+000  1.400000e+001  1.095000e+001
    endloop
  endfacet
  facet normal -1.000000e+000  0.000000e+000  -0.000000e+000
    outer loop
      vertex  0.000000e+000  7.000000e+000  5.000000e+000
      vertex  0.000000e+000  1.400000e+001  1.095000e+001
      vertex  0.000000e+000  2.100000e+001  5.000000e+000
    endloop
  endfacet
  facet normal -1.000000e+000  0.000000e+000  0.000000e+000
    outer loop
      vertex  0.000000e+000  7.000000e+000  3.479993e+001
      vertex  0.000000e+000  0.000000e+000  3.479993e+001
      vertex  0.000000e+000  1.421085e-014  3.700000e+001
    endloop
  endfacet
  facet normal -1.000000e+000  0.000000e+000  0.000000e+000
    outer loop
      vertex  0.000000e+000  7.000000e+000  3.479993e+001
      vertex  0.000000e+000  1.421085e-014  3.700000e+001
      vertex  0.000000e+000  2.800000e+001  3.700000e+001
    endloop
  endfacet
  facet normal -1.000000e+000  0.000000e+000  0.000000e+000
    outer loop
      vertex  0.000000e+000  7.000000e+000  3.479993e+001
      vertex  0.000000e+000  2.800000e+001  3.700000e+001
      vertex  0.000000e+000  2.100000e+001  3.479993e+001
    endloop
  endfacet
  facet normal -1.000000e+000  -0.000000e+000  0.000000e+000
    outer loop
      vertex  0.000000e+000  7.000000e+000  3.479993e+001
      vertex  0.000000e+000  2.100000e+001  3.479993e+001
      vertex  0.000000e+000  1.400000e+001  3.005000e+001
    endloop
  endfacet
  facet normal -1.000000e+000  -0.000000e+000  0.000000e+000
    outer loop
      vertex  0.000000e+000  7.000000e+000  3.479993e+001
      vertex  0.000000e+000  1.400000e+001  3.005000e+001
      vertex  0.000000e+000  1.346942e+001  2.998015e+001
    endloop
  endfacet
  facet normal -9.999999e-001  -0.000000e+000  0.000000e+000
    outer loop
      vertex  0.000000e+000  7.000000e+000  3.479993e+001
      vertex  0.000000e+000  1.346942e+001  2.998015e+001
      vertex  0.000000e+000  1.297500e+001  2.977535e+001
    endloop
  endfacet
  facet normal -1.000000e+000  -0.000000e+000  0.000000e+000
    outer loop
      vertex  0.000000e+000  7.000000e+000  3.479993e+001
      vertex  0.000000e+000  1.297500e+001  2.977535e+001
      vertex  0.000000e+000  1.255043e+001  2.944957e+001
    endloop
  endfacet
  facet normal -1.000000e+000  -0.000000e+000  0.000000e+000
    outer loop
      vertex  0.000000e+000  7.000000e+000  3.479993e+001
      vertex  0.000000e+000  1.255043e+001  2.944957e+001
      vertex  0.000000e+000  1.222465e+001  2.902500e+001
    endloop
  endfacet
  facet normal -1.000000e+000  -0.000000e+000  0.000000e+000
    outer loop
      vertex  0.000000e+000  7.000000e+000  3.479993e+001
      vertex  0.000000e+000  1.222465e+001  2.902500e+001
      vertex  0.000000e+000  1.201985e+001  2.853058e+001
    endloop
  endfacet
  facet normal -1.000000e+000  -0.000000e+000  0.000000e+000
    outer loop
      vertex  0.000000e+000  7.000000e+000  3.479993e+001
      vertex  0.000000e+000  1.201985e+001  2.853058e+001
      vertex  0.000000e+000  7.000000e+000  5.000000e+000
    endloop
  endfacet
  facet normal -1.000000e+000  0.000000e+000  0.000000e+000
    outer loop
      vertex  0.000000e+000  2.100000e+001  5.000000e+000
      vertex  0.000000e+000  1.400000e+001  1.095000e+001
      vertex  0.000000e+000  1.453058e+001  1.101985e+001
    endloop
  endfacet
  facet normal -1.000000e+000  0.000000e+000  0.000000e+000
    outer loop
      vertex  0.000000e+000  2.100000e+001  5.000000e+000
      vertex  0.000000e+000  1.453058e+001  1.101985e+001
      vertex  0.000000e+000  1.502500e+001  1.122465e+001
    endloop
  endfacet
  facet normal -1.000000e+000  0.000000e+000  0.000000e+000
    outer loop
      vertex  0.000000e+000  2.100000e+001  5.000000e+000
      vertex  0.000000e+000  1.502500e+001  1.122465e+001
      vertex  0.000000e+000  1.544957e+001  1.155043e+001
    endloop
  endfacet
  facet normal -1.000000e+000  0.000000e+000  0.000000e+000
    outer loop
      vertex  0.000000e+000  2.100000e+001  5.000000e+000
      vertex  0.000000e+000  1.544957e+001  1.155043e+001
      vertex  0.000000e+000  1.577535e+001  1.197500e+001
    endloop
  endfacet
  facet normal -1.000000e+000  0.000000e+000  0.000000e+000
    outer loop
      vertex  0.000000e+000  2.100000e+001  5.000000e+000
      vertex  0.000000e+000  1.577535e+001  1.197500e+001
      vertex  0.000000e+000  1.598015e+001  1.246942e+001
    endloop
  endfacet
  facet normal -1.000000e+000  0.000000e+000  0.000000e+000
    outer loop
      vertex  0.000000e+000  2.100000e+001  5.000000e+000
      vertex  0.000000e+000  1.598015e+001  1.246942e+001
      vertex  0.000000e+000  1.605000e+001  1.300000e+001
    endloop
  endfacet
  facet normal -1.000000e+000  0.000000e+000  0.000000e+000
    outer loop
      vertex  0.000000e+000  2.100000e+001  5.000000e+000
      vertex  0.000000e+000  1.605000e+001  1.300000e+001
      vertex  0.000000e+000  1.598015e+001  1.353058e+001
    endloop
  endfacet
  facet normal -9.999999e-001  0.000000e+000  0.000000e+000
    outer loop
      vertex  0.000000e+000  2.100000e+001  5.000000e+000
      vertex  0.000000e+000  1.598015e+001  1.353058e+001
      vertex  0.000000e+000  1.577535e+001  1.402500e+001
    endloop
  endfacet
  facet normal -1.000000e+000  0.000000e+000  0.000000e+000
    outer loop
      vertex  0.000000e+000  2.100000e+001  5.000000e+000
      vertex  0.000000e+000  1.577535e+001  1.402500e+001
      vertex  0.000000e+000  1.400000e+001  2.595000e+001
    endloop
  endfacet
  facet normal -1.000000e+000  0.000000e+000  0.000000e+000
    outer loop
      vertex  0.000000e+000  2.100000e+001  5.000000e+000
      vertex  0.000000e+000  1.400000e+001  2.595000e+001
      vertex  0.000000e+000  1.453058e+001  2.601985e+001
    endloop
  endfacet
  facet normal -1.000000e+000  0.000000e+000  0.000000e+000
    outer loop
      vertex  0.000000e+000  2.100000e+001  5.000000e+000
      vertex  0.000000e+000  1.453058e+001  2.601985e+001
      vertex  0.000000e+000  1.502500e+001  2.622465e+001
    endloop
  endfacet
  facet normal -1.000000e+000  0.000000e+000  0.000000e+000
    outer loop
      vertex  0.000000e+000  2.100000e+001  5.000000e+000
      vertex  0.000000e+000  1.502500e+001  2.622465e+001
      vertex  0.000000e+000  1.544957e+001  2.655043e+001
    endloop
  endfacet
  facet normal -1.000000e+000  0.000000e+000  0.000000e+000
    outer loop
      vertex  0.000000e+000  2.100000e+001  5.000000e+000
      vertex  0.000000e+000  1.544957e+001  2.655043e+001
      vertex  0.000000e+000  1.577535e+001  2.697500e+001
    endloop
  endfacet
  facet normal -9.999999e-001  0.000000e+000  0.000000e+000
    outer loop
      vertex  0.000000e+000  2.100000e+001  5.000000e+000
      vertex  0.000000e+000  1.577535e+001  2.697500e+001
      vertex  0.000000e+000  1.598015e+001  2.746942e+001
    endloop
  endfacet
  facet normal -1.000000e+000  0.000000e+000  0.000000e+000
    outer loop
      vertex  0.000000e+000  2.100000e+001  5.000000e+000
      vertex  0.000000e+000  1.598015e+001  2.746942e+001
      vertex  0.000000e+000  1.605000e+001  2.800000e+001
    endloop
  endfacet
  facet normal -1.000000e+000  0.000000e+000  0.000000e+000
    outer loop
      vertex  0.000000e+000  2.100000e+001  5.000000e+000
      vertex  0.000000e+000  1.605000e+001  2.800000e+001
      vertex  0.000000e+000  1.598015e+001  2.853058e+001
    endloop
  endfacet
  facet normal -1.000000e+000  0.000000e+000  0.000000e+000
    outer loop
      vertex  0.000000e+000  2.100000e+001  3.479993e+001
      vertex  0.000000e+000  2.100000e+001  5.000000e+000
      vertex  0.000000e+000  1.598015e+001  2.853058e+001
    endloop
  endfacet
  facet normal -1.000000e+000  0.000000e+000  0.000000e+000
    outer loop
      vertex  0.000000e+000  2.100000e+001  3.479993e+001
      vertex  0.000000e+000  1.598015e+001  2.853058e+001
      vertex  0.000000e+000  1.577535e+001  2.902500e+001
    endloop
  endfacet
  facet normal -1.000000e+000  0.000000e+000  0.000000e+000
    outer loop
      vertex  0.000000e+000  2.100000e+001  3.479993e+001
      vertex  0.000000e+000  1.577535e+001  2.902500e+001
      vertex  0.000000e+000  1.544957e+001  2.944957e+001
    endloop
  endfacet
  facet normal -1.000000e+000  0.000000e+000  0.000000e+000
    outer loop
      vertex  0.000000e+000  2.100000e+001  3.479993e+001
      vertex  0.000000e+000  1.544957e+001  2.944957e+001
      vertex  0.000000e+000  1.502500e+001  2.977535e+001
    endloop
  endfacet
  facet normal -1.000000e+000  0.000000e+000  0.000000e+000
    outer loop
      vertex  0.000000e+000  2.100000e+001  3.479993e+001
      vertex  0.000000e+000  1.502500e+001  2.977535e+001
      vertex  0.000000e+000  1.453058e+001  2.998015e+001
    endloop
  endfacet
  facet normal -1.000000e+000  0.000000e+000  0.000000e+000
    outer loop
      vertex  0.000000e+000  2.100000e+001  3.479993e+001
      vertex  0.000000e+000  1.453058e+001  2.998015e+001
      vertex  0.000000e+000  1.400000e+001  3.005000e+001
    endloop
  endfacet
  facet normal -4.993762e-002  0.000000e+000  9.987524e-001
    outer loop
      vertex  0.000000e+000  7.000000e+000  5.000000e+000
      vertex  0.000000e+000  2.100000e+001  5.000000e+000
      vertex -5.000000e+001  7.000000e+000  2.500000e+000
    endloop
  endfacet
  facet normal -4.993762e-002  0.000000e+000  9.987524e-001
    outer loop
      vertex -5.000000e+001  7.000000e+000  2.500000e+000
      vertex  0.000000e+000  2.100000e+001  5.000000e+000
      vertex -5.000000e+001  2.100000e+001  2.500000e+000
    endloop
  endfacet
  facet normal -1.000000e+000  0.000000e+000  0.000000e+000
    outer loop
      vertex -5.000000e+001  0.000000e+000  0.000000e+000
      vertex -5.000000e+001  0.000000e+000  2.500000e+000
      vertex -5.000000e+001  7.000000e+000  2.500000e+000
    endloop
  endfacet
  facet normal -1.000000e+000  0.000000e+000  0.000000e+000
    outer loop
      vertex -5.000000e+001  2.800000e+001  2.500000e+000
      vertex -5.000000e+001  2.800000e+001  0.000000e+000
      vertex -5.000000e+001  2.100000e+001  2.500000e+000
    endloop
  endfacet
  facet normal -1.000000e+000  0.000000e+000  -0.000000e+000
    outer loop
      vertex -5.000000e+001  2.100000e+001  2.500000e+000
      vertex -5.000000e+001  2.800000e+001  0.000000e+000
      vertex -5.000000e+001  0.000000e+000  0.000000e+000
    endloop
  endfacet
  facet normal -1.000000e+000  0.000000e+000  0.000000e+000
    outer loop
      vertex -5.000000e+001  2.100000e+001  2.500000e+000
      vertex -5.000000e+001  0.000000e+000  0.000000e+000
      vertex -5.000000e+001  7.000000e+000  2.500000e+000
    endloop
  endfacet
  facet normal  -0.000000e+000  1.000000e+000  0.000000e+000
    outer loop
      vertex  0.000000e+000  2.800000e+001  3.479993e+001
      vertex  0.000000e+000  2.800000e+001  3.700000e+001
      vertex  4.000000e+000  2.800000e+001  3.700000e+001
    endloop
  endfacet
  facet normal  0.000000e+000  1.000000e+000  0.000000e+000
    outer loop
      vertex  4.000000e+000  2.800000e+001  0.000000e+000
      vertex -5.000000e+001  2.800000e+001  0.000000e+000
      vertex  4.000000e+000  2.800000e+001  3.700000e+001
    endloop
  endfacet
  facet normal  0.000000e+000  1.000000e+000  0.000000e+000
    outer loop
      vertex  4.000000e+000  2.800000e+001  3.700000e+001
      vertex -5.000000e+001  2.800000e+001  0.000000e+000
      vertex -5.000000e+001  2.800000e+001  2.500000e+000
    endloop
  endfacet
  facet normal  0.000000e+000  1.000000e+000  0.000000e+000
    outer loop
      vertex  4.000000e+000  2.800000e+001  3.700000e+001
      vertex -5.000000e+001  2.800000e+001  2.500000e+000
      vertex  0.000000e+000  2.800000e+001  3.479993e+001
    endloop
  endfacet
  facet normal  -0.000000e+000 -1.000000e+000  0.000000e+000
    outer loop
      vertex -5.000000e+001  2.100000e+001  2.500000e+000
      vertex  0.000000e+000  2.100000e+001  5.000000e+000
      vertex  0.000000e+000  2.100000e+001  3.479993e+001
    endloop
  endfacet
  facet normal -5.426234e-001  0.000000e+000  8.399761e-001
    outer loop
      vertex  0.000000e+000  2.100000e+001  3.479993e+001
      vertex  0.000000e+000  2.800000e+001  3.479993e+001
      vertex -5.000000e+001  2.100000e+001  2.500000e+000
    endloop
  endfacet
  facet normal -5.426234e-001  0.000000e+000  8.399761e-001
    outer loop
      vertex -5.000000e+001  2.100000e+001  2.500000e+000
      vertex  0.000000e+000  2.800000e+001  3.479993e+001
      vertex -5.000000e+001  2.800000e+001  2.500000e+000
    endloop
  endfacet
  facet normal  1.000000e+000  0.000000e+000  -0.000000e+000
    outer loop
      vertex  4.000000e+000  1.255043e+001  1.444957e+001
      vertex  4.000000e+000  1.297500e+001  1.477535e+001
      vertex  4.000000e+000  1.400000e+001  2.595000e+001
    endloop
  endfacet
  facet normal  1.000000e+000  0.000000e+000  -0.000000e+000
    outer loop
      vertex  4.000000e+000  1.297500e+001  1.477535e+001
      vertex  4.000000e+000  1.346942e+001  1.498015e+001
      vertex  4.000000e+000  1.400000e+001  2.595000e+001
    endloop
  endfacet
  facet normal  1.000000e+000  0.000000e+000  -0.000000e+000
    outer loop
      vertex  4.000000e+000  1.346942e+001  1.498015e+001
      vertex  4.000000e+000  1.400000e+001  1.505000e+001
      vertex  4.000000e+000  1.400000e+001  2.595000e+001
    endloop
  endfacet
  facet normal  1.000000e+000  0.000000e+000  0.000000e+000
    outer loop
      vertex  4.000000e+000  1.544957e+001  1.444957e+001
      vertex  4.000000e+000  1.400000e+001  2.595000e+001
      vertex  4.000000e+000  1.502500e+001  1.477535e+001
    endloop
  endfacet
  facet normal  1.000000e+000  0.000000e+000  0.000000e+000
    outer loop
      vertex  4.000000e+000  1.502500e+001  1.477535e+001
      vertex  4.000000e+000  1.400000e+001  2.595000e+001
      vertex  4.000000e+000  1.453058e+001  1.498015e+001
    endloop
  endfacet
  facet normal  1.000000e+000  0.000000e+000  0.000000e+000
    outer loop
      vertex  4.000000e+000  1.453058e+001  1.498015e+001
      vertex  4.000000e+000  1.400000e+001  2.595000e+001
      vertex  4.000000e+000  1.400000e+001  1.505000e+001
    endloop
  endfacet
  facet normal  1.000000e+000  0.000000e+000  0.000000e+000
    outer loop
      vertex  4.000000e+000  1.421085e-014  3.700000e+001
      vertex  4.000000e+000  0.000000e+000  0.000000e+000
      vertex  4.000000e+000  1.201985e+001  2.853058e+001
    endloop
  endfacet
  facet normal  1.000000e+000  0.000000e+000  -0.000000e+000
    outer loop
      vertex  4.000000e+000  1.421085e-014  3.700000e+001
      vertex  4.000000e+000  1.201985e+001  2.853058e+001
      vertex  4.000000e+000  1.222465e+001  2.902500e+001
    endloop
  endfacet
  facet normal  1.000000e+000  0.000000e+000  -0.000000e+000
    outer loop
      vertex  4.000000e+000  1.421085e-014  3.700000e+001
      vertex  4.000000e+000  1.222465e+001  2.902500e+001
      vertex  4.000000e+000  1.255043e+001  2.944957e+001
    endloop
  endfacet
  facet normal  1.000000e+000  0.000000e+000  -0.000000e+000
    outer loop
      vertex  4.000000e+000  1.421085e-014  3.700000e+001
      vertex  4.000000e+000  1.255043e+001  2.944957e+001
      vertex  4.000000e+000  1.297500e+001  2.977535e+001
    endloop
  endfacet
  facet normal  1.000000e+000  0.000000e+000  -0.000000e+000
    outer loop
      vertex  4.000000e+000  1.421085e-014  3.700000e+001
      vertex  4.000000e+000  1.297500e+001  2.977535e+001
      vertex  4.000000e+000  1.346942e+001  2.998015e+001
    endloop
  endfacet
  facet normal  1.000000e+000  0.000000e+000  -0.000000e+000
    outer loop
      vertex  4.000000e+000  1.421085e-014  3.700000e+001
      vertex  4.000000e+000  1.346942e+001  2.998015e+001
      vertex  4.000000e+000  1.400000e+001  3.005000e+001
    endloop
  endfacet
  facet normal  1.000000e+000  0.000000e+000  -0.000000e+000
    outer loop
      vertex  4.000000e+000  1.421085e-014  3.700000e+001
      vertex  4.000000e+000  1.400000e+001  3.005000e+001
      vertex  4.000000e+000  2.800000e+001  3.700000e+001
    endloop
  endfacet
  facet normal  1.000000e+000  0.000000e+000  0.000000e+000
    outer loop
      vertex  4.000000e+000  0.000000e+000  0.000000e+000
      vertex  4.000000e+000  2.800000e+001  0.000000e+000
      vertex  4.000000e+000  1.400000e+001  1.095000e+001
    endloop
  endfacet
  facet normal  1.000000e+000  0.000000e+000  0.000000e+000
    outer loop
      vertex  4.000000e+000  0.000000e+000  0.000000e+000
      vertex  4.000000e+000  1.400000e+001  1.095000e+001
      vertex  4.000000e+000  1.346942e+001  1.101985e+001
    endloop
  endfacet
  facet normal  1.000000e+000  0.000000e+000  0.000000e+000
    outer loop
      vertex  4.000000e+000  0.000000e+000  0.000000e+000
      vertex  4.000000e+000  1.346942e+001  1.101985e+001
      vertex  4.000000e+000  1.297500e+001  1.122465e+001
    endloop
  endfacet
  facet normal  1.000000e+000  0.000000e+000  0.000000e+000
    outer loop
      vertex  4.000000e+000  0.000000e+000  0.000000e+000
      vertex  4.000000e+000  1.297500e+001  1.122465e+001
      vertex  4.000000e+000  1.255043e+001  1.155043e+001
    endloop
  endfacet
  facet normal  1.000000e+000  0.000000e+000  0.000000e+000
    outer loop
      vertex  4.000000e+000  0.000000e+000  0.000000e+000
      vertex  4.000000e+000  1.255043e+001  1.155043e+001
      vertex  4.000000e+000  1.222465e+001  1.197500e+001
    endloop
  endfacet
  facet normal  1.000000e+000  0.000000e+000  0.000000e+000
    outer loop
      vertex  4.000000e+000  0.000000e+000  0.000000e+000
      vertex  4.000000e+000  1.222465e+001  1.197500e+001
      vertex  4.000000e+000  1.201985e+001  1.246942e+001
    endloop
  endfacet
  facet normal  9.999999e-001  0.000000e+000  0.000000e+000
    outer loop
      vertex  4.000000e+000  0.000000e+000  0.000000e+000
      vertex  4.000000e+000  1.201985e+001  1.246942e+001
      vertex  4.000000e+000  1.195000e+001  1.300000e+001
    endloop
  endfacet
  facet normal  1.000000e+000  0.000000e+000  -0.000000e+000
    outer loop
      vertex  4.000000e+000  0.000000e+000  0.000000e+000
      vertex  4.000000e+000  1.195000e+001  1.300000e+001
      vertex  4.000000e+000  1.201985e+001  1.353058e+001
    endloop
  endfacet
  facet normal  1.000000e+000  0.000000e+000  -0.000000e+000
    outer loop
      vertex  4.000000e+000  0.000000e+000  0.000000e+000
      vertex  4.000000e+000  1.201985e+001  1.353058e+001
      vertex  4.000000e+000  1.222465e+001  1.402500e+001
    endloop
  endfacet
  facet normal  1.000000e+000  0.000000e+000  -0.000000e+000
    outer loop
      vertex  4.000000e+000  0.000000e+000  0.000000e+000
      vertex  4.000000e+000  1.222465e+001  1.402500e+001
      vertex  4.000000e+000  1.255043e+001  1.444957e+001
    endloop
  endfacet
  facet normal  9.999999e-001  0.000000e+000  -0.000000e+000
    outer loop
      vertex  4.000000e+000  0.000000e+000  0.000000e+000
      vertex  4.000000e+000  1.255043e+001  1.444957e+001
      vertex  4.000000e+000  1.400000e+001  2.595000e+001
    endloop
  endfacet
  facet normal  1.000000e+000  0.000000e+000  0.000000e+000
    outer loop
      vertex  4.000000e+000  0.000000e+000  0.000000e+000
      vertex  4.000000e+000  1.400000e+001  2.595000e+001
      vertex  4.000000e+000  1.346942e+001  2.601985e+001
    endloop
  endfacet
  facet normal  9.999999e-001  0.000000e+000  0.000000e+000
    outer loop
      vertex  4.000000e+000  0.000000e+000  0.000000e+000
      vertex  4.000000e+000  1.346942e+001  2.601985e+001
      vertex  4.000000e+000  1.297500e+001  2.622465e+001
    endloop
  endfacet
  facet normal  1.000000e+000  0.000000e+000  0.000000e+000
    outer loop
      vertex  4.000000e+000  0.000000e+000  0.000000e+000
      vertex  4.000000e+000  1.297500e+001  2.622465e+001
      vertex  4.000000e+000  1.255043e+001  2.655043e+001
    endloop
  endfacet
  facet normal  1.000000e+000  0.000000e+000  0.000000e+000
    outer loop
      vertex  4.000000e+000  0.000000e+000  0.000000e+000
      vertex  4.000000e+000  1.255043e+001  2.655043e+001
      vertex  4.000000e+000  1.222465e+001  2.697500e+001
    endloop
  endfacet
  facet normal  1.000000e+000  0.000000e+000  0.000000e+000
    outer loop
      vertex  4.000000e+000  0.000000e+000  0.000000e+000
      vertex  4.000000e+000  1.222465e+001  2.697500e+001
      vertex  4.000000e+000  1.201985e+001  2.746942e+001
    endloop
  endfacet
  facet normal  1.000000e+000  0.000000e+000  0.000000e+000
    outer loop
      vertex  4.000000e+000  0.000000e+000  0.000000e+000
      vertex  4.000000e+000  1.201985e+001  2.746942e+001
      vertex  4.000000e+000  1.195000e+001  2.800000e+001
    endloop
  endfacet
  facet normal  1.000000e+000  0.000000e+000  -0.000000e+000
    outer loop
      vertex  4.000000e+000  0.000000e+000  0.000000e+000
      vertex  4.000000e+000  1.195000e+001  2.800000e+001
      vertex  4.000000e+000  1.201985e+001  2.853058e+001
    endloop
  endfacet
  facet normal  1.000000e+000  0.000000e+000  0.000000e+000
    outer loop
      vertex  4.000000e+000  2.800000e+001  0.000000e+000
      vertex  4.000000e+000  1.598015e+001  2.853058e+001
      vertex  4.000000e+000  1.605000e+001  2.800000e+001
    endloop
  endfacet
  facet normal  1.000000e+000  0.000000e+000  0.000000e+000
    outer loop
      vertex  4.000000e+000  2.800000e+001  0.000000e+000
      vertex  4.000000e+000  1.605000e+001  2.800000e+001
      vertex  4.000000e+000  1.598015e+001  2.746942e+001
    endloop
  endfacet
  facet normal  1.000000e+000  0.000000e+000  0.000000e+000
    outer loop
      vertex  4.000000e+000  2.800000e+001  0.000000e+000
      vertex  4.000000e+000  1.598015e+001  2.746942e+001
      vertex  4.000000e+000  1.577535e+001  2.697500e+001
    endloop
  endfacet
  facet normal  1.000000e+000  0.000000e+000  0.000000e+000
    outer loop
      vertex  4.000000e+000  2.800000e+001  0.000000e+000
      vertex  4.000000e+000  1.577535e+001  2.697500e+001
      vertex  4.000000e+000  1.544957e+001  2.655043e+001
    endloop
  endfacet
  facet normal  1.000000e+000  0.000000e+000  0.000000e+000
    outer loop
      vertex  4.000000e+000  2.800000e+001  0.000000e+000
      vertex  4.000000e+000  1.544957e+001  2.655043e+001
      vertex  4.000000e+000  1.502500e+001  2.622465e+001
    endloop
  endfacet
  facet normal  9.999999e-001  0.000000e+000  0.000000e+000
    outer loop
      vertex  4.000000e+000  2.800000e+001  0.000000e+000
      vertex  4.000000e+000  1.502500e+001  2.622465e+001
      vertex  4.000000e+000  1.453058e+001  2.601985e+001
    endloop
  endfacet
  facet normal  1.000000e+000  0.000000e+000  0.000000e+000
    outer loop
      vertex  4.000000e+000  2.800000e+001  0.000000e+000
      vertex  4.000000e+000  1.453058e+001  2.601985e+001
      vertex  4.000000e+000  1.400000e+001  2.595000e+001
    endloop
  endfacet
  facet normal  9.999999e-001  0.000000e+000  0.000000e+000
    outer loop
      vertex  4.000000e+000  2.800000e+001  0.000000e+000
      vertex  4.000000e+000  1.400000e+001  2.595000e+001
      vertex  4.000000e+000  1.544957e+001  1.444957e+001
    endloop
  endfacet
  facet normal  1.000000e+000  0.000000e+000  0.000000e+000
    outer loop
      vertex  4.000000e+000  2.800000e+001  0.000000e+000
      vertex  4.000000e+000  1.544957e+001  1.444957e+001
      vertex  4.000000e+000  1.577535e+001  1.402500e+001
    endloop
  endfacet
  facet normal  1.000000e+000  0.000000e+000  0.000000e+000
    outer loop
      vertex  4.000000e+000  2.800000e+001  0.000000e+000
      vertex  4.000000e+000  1.577535e+001  1.402500e+001
      vertex  4.000000e+000  1.598015e+001  1.353058e+001
    endloop
  endfacet
  facet normal  1.000000e+000  0.000000e+000  0.000000e+000
    outer loop
      vertex  4.000000e+000  2.800000e+001  0.000000e+000
      vertex  4.000000e+000  1.598015e+001  1.353058e+001
      vertex  4.000000e+000  1.605000e+001  1.300000e+001
    endloop
  endfacet
  facet normal  1.000000e+000  0.000000e+000  0.000000e+000
    outer loop
      vertex  4.000000e+000  2.800000e+001  0.000000e+000
      vertex  4.000000e+000  1.605000e+001  1.300000e+001
      vertex  4.000000e+000  1.598015e+001  1.246942e+001
    endloop
  endfacet
  facet normal  1.000000e+000  0.000000e+000  0.000000e+000
    outer loop
      vertex  4.000000e+000  2.800000e+001  0.000000e+000
      vertex  4.000000e+000  1.598015e+001  1.246942e+001
      vertex  4.000000e+000  1.577535e+001  1.197500e+001
    endloop
  endfacet
  facet normal  1.000000e+000  0.000000e+000  0.000000e+000
    outer loop
      vertex  4.000000e+000  2.800000e+001  0.000000e+000
      vertex  4.000000e+000  1.577535e+001  1.197500e+001
      vertex  4.000000e+000  1.544957e+001  1.155043e+001
    endloop
  endfacet
  facet normal  1.000000e+000  0.000000e+000  0.000000e+000
    outer loop
      vertex  4.000000e+000  2.800000e+001  0.000000e+000
      vertex  4.000000e+000  1.544957e+001  1.155043e+001
      vertex  4.000000e+000  1.502500e+001  1.122465e+001
    endloop
  endfacet
  facet normal  1.000000e+000  0.000000e+000  0.000000e+000
    outer loop
      vertex  4.000000e+000  2.800000e+001  0.000000e+000
      vertex  4.000000e+000  1.502500e+001  1.122465e+001
      vertex  4.000000e+000  1.453058e+001  1.101985e+001
    endloop
  endfacet
  facet normal  1.000000e+000  0.000000e+000  0.000000e+000
    outer loop
      vertex  4.000000e+000  2.800000e+001  0.000000e+000
      vertex  4.000000e+000  1.453058e+001  1.101985e+001
      vertex  4.000000e+000  1.400000e+001  1.095000e+001
    endloop
  endfacet
  facet normal  1.000000e+000  -0.000000e+000  0.000000e+000
    outer loop
      vertex  4.000000e+000  2.800000e+001  3.700000e+001
      vertex  4.000000e+000  1.400000e+001  3.005000e+001
      vertex  4.000000e+000  1.453058e+001  2.998015e+001
    endloop
  endfacet
  facet normal  1.000000e+000  -0.000000e+000  0.000000e+000
    outer loop
      vertex  4.000000e+000  2.800000e+001  3.700000e+001
      vertex  4.000000e+000  1.453058e+001  2.998015e+001
      vertex  4.000000e+000  1.502500e+001  2.977535e+001
    endloop
  endfacet
  facet normal  1.000000e+000  -0.000000e+000  0.000000e+000
    outer loop
      vertex  4.000000e+000  2.800000e+001  3.700000e+001
      vertex  4.000000e+000  1.502500e+001  2.977535e+001
      vertex  4.000000e+000  1.544957e+001  2.944957e+001
    endloop
  endfacet
  facet normal  1.000000e+000  -0.000000e+000  0.000000e+000
    outer loop
      vertex  4.000000e+000  2.800000e+001  3.700000e+001
      vertex  4.000000e+000  1.544957e+001  2.944957e+001
      vertex  4.000000e+000  1.577535e+001  2.902500e+001
    endloop
  endfacet
  facet normal  1.000000e+000  -0.000000e+000  0.000000e+000
    outer loop
      vertex  4.000000e+000  2.800000e+001  3.700000e+001
      vertex  4.000000e+000  1.577535e+001  2.902500e+001
      vertex  4.000000e+000  1.598015e+001  2.853058e+001
    endloop
  endfacet
  facet normal  1.000000e+000  -0.000000e+000  0.000000e+000
    outer loop
      vertex  4.000000e+000  2.800000e+001  3.700000e+001
      vertex  4.000000e+000  1.598015e+001  2.853058e+001
      vertex  4.000000e+000  2.800000e+001  0.000000e+000
    endloop
  endfacet
  facet normal  0.000000e+000  0.000000e+000 -9.999999e-001
    outer loop
      vertex -5.000000e+001  0.000000e+000  0.000000e+000
      vertex -5.000000e+001  2.800000e+001  0.000000e+000
      vertex  4.000000e+000  0.000000e+000  0.000000e+000
    endloop
  endfacet
  facet normal  0.000000e+000  0.000000e+000 -9.999999e-001
    outer loop
      vertex  4.000000e+000  0.000000e+000  0.000000e+000
      vertex -5.000000e+001  2.800000e+001  0.000000e+000
      vertex  4.000000e+000  2.800000e+001  0.000000e+000
    endloop
  endfacet
  facet normal  0.000000e+000  9.914448e-001 -1.305260e-001
    outer loop
      vertex  4.000000e+000  1.195000e+001  1.300000e+001
      vertex  0.000000e+000  1.195000e+001  1.300000e+001
      vertex  4.000000e+000  1.201985e+001  1.353058e+001
    endloop
  endfacet
  facet normal  0.000000e+000  9.914448e-001 -1.305260e-001
    outer loop
      vertex  4.000000e+000  1.201985e+001  1.353058e+001
      vertex  0.000000e+000  1.195000e+001  1.300000e+001
      vertex  0.000000e+000  1.201985e+001  1.353058e+001
    endloop
  endfacet
  facet normal  0.000000e+000  9.238795e-001 -3.826833e-001
    outer loop
      vertex  4.000000e+000  1.201985e+001  1.353058e+001
      vertex  0.000000e+000  1.201985e+001  1.353058e+001
      vertex  4.000000e+000  1.222465e+001  1.402500e+001
    endloop
  endfacet
  facet normal  0.000000e+000  9.238795e-001 -3.826833e-001
    outer loop
      vertex  4.000000e+000  1.222465e+001  1.402500e+001
      vertex  0.000000e+000  1.201985e+001  1.353058e+001
      vertex  0.000000e+000  1.222465e+001  1.402500e+001
    endloop
  endfacet
  facet normal  0.000000e+000  7.933530e-001 -6.087618e-001
    outer loop
      vertex  4.000000e+000  1.222465e+001  1.402500e+001
      vertex  0.000000e+000  1.222465e+001  1.402500e+001
      vertex  4.000000e+000  1.255043e+001  1.444957e+001
    endloop
  endfacet
  facet normal  0.000000e+000  7.933530e-001 -6.087618e-001
    outer loop
      vertex  4.000000e+000  1.255043e+001  1.444957e+001
      vertex  0.000000e+000  1.222465e+001  1.402500e+001
      vertex  0.000000e+000  1.255043e+001  1.444957e+001
    endloop
  endfacet
  facet normal  0.000000e+000  6.087618e-001 -7.933530e-001
    outer loop
      vertex  4.000000e+000  1.255043e+001  1.444957e+001
      vertex  0.000000e+000  1.255043e+001  1.444957e+001
      vertex  4.000000e+000  1.297500e+001  1.477535e+001
    endloop
  endfacet
  facet normal  0.000000e+000  6.087618e-001 -7.933530e-001
    outer loop
      vertex  4.000000e+000  1.297500e+001  1.477535e+001
      vertex  0.000000e+000  1.255043e+001  1.444957e+001
      vertex  0.000000e+000  1.297500e+001  1.477535e+001
    endloop
  endfacet
  facet normal  0.000000e+000  3.826833e-001 -9.238795e-001
    outer loop
      vertex  4.000000e+000  1.297500e+001  1.477535e+001
      vertex  0.000000e+000  1.297500e+001  1.477535e+001
      vertex  4.000000e+000  1.346942e+001  1.498015e+001
    endloop
  endfacet
  facet normal  0.000000e+000  3.826833e-001 -9.238795e-001
    outer loop
      vertex  4.000000e+000  1.346942e+001  1.498015e+001
      vertex  0.000000e+000  1.297500e+001  1.477535e+001
      vertex  0.000000e+000  1.346942e+001  1.498015e+001
    endloop
  endfacet
  facet normal  0.000000e+000  1.305260e-001 -9.914448e-001
    outer loop
      vertex  4.000000e+000  1.346942e+001  1.498015e+001
      vertex  0.000000e+000  1.346942e+001  1.498015e+001
      vertex  4.000000e+000  1.400000e+001  1.505000e+001
    endloop
  endfacet
  facet normal  0.000000e+000  1.305260e-001 -9.914448e-001
    outer loop
      vertex  4.000000e+000  1.400000e+001  1.505000e+001
      vertex  0.000000e+000  1.346942e+001  1.498015e+001
      vertex  0.000000e+000  1.400000e+001  1.505000e+001
    endloop
  endfacet
  facet normal  0.000000e+000 -1.305260e-001 -9.914448e-001
    outer loop
      vertex  4.000000e+000  1.400000e+001  1.505000e+001
      vertex  0.000000e+000  1.400000e+001  1.505000e+001
      vertex  4.000000e+000  1.453058e+001  1.498015e+001
    endloop
  endfacet
  facet normal  -0.000000e+000 -1.305260e-001 -9.914448e-001
    outer loop
      vertex  4.000000e+000  1.453058e+001  1.498015e+001
      vertex  0.000000e+000  1.400000e+001  1.505000e+001
      vertex  0.000000e+000  1.453058e+001  1.498015e+001
    endloop
  endfacet
  facet normal  0.000000e+000 -3.826833e-001 -9.238795e-001
    outer loop
      vertex  4.000000e+000  1.453058e+001  1.498015e+001
      vertex  0.000000e+000  1.453058e+001  1.498015e+001
      vertex  4.000000e+000  1.502500e+001  1.477535e+001
    endloop
  endfacet
  facet normal  -0.000000e+000 -3.826833e-001 -9.238795e-001
    outer loop
      vertex  4.000000e+000  1.502500e+001  1.477535e+001
      vertex  0.000000e+000  1.453058e+001  1.498015e+001
      vertex  0.000000e+000  1.502500e+001  1.477535e+001
    endloop
  endfacet
  facet normal  0.000000e+000 -6.087618e-001 -7.933530e-001
    outer loop
      vertex  4.000000e+000  1.502500e+001  1.477535e+001
      vertex  0.000000e+000  1.502500e+001  1.477535e+001
      vertex  4.000000e+000  1.544957e+001  1.444957e+001
    endloop
  endfacet
  facet normal  -0.000000e+000 -6.087618e-001 -7.933530e-001
    outer loop
      vertex  4.000000e+000  1.544957e+001  1.444957e+001
      vertex  0.000000e+000  1.502500e+001  1.477535e+001
      vertex  0.000000e+000  1.544957e+001  1.444957e+001
    endloop
  endfacet
  facet normal  0.000000e+000 -7.933530e-001 -6.087618e-001
    outer loop
      vertex  4.000000e+000  1.544957e+001  1.444957e+001
      vertex  0.000000e+000  1.544957e+001  1.444957e+001
      vertex  4.000000e+000  1.577535e+001  1.402500e+001
    endloop
  endfacet
  facet normal  -0.000000e+000 -7.933530e-001 -6.087618e-001
    outer loop
      vertex  4.000000e+000  1.577535e+001  1.402500e+001
      vertex  0.000000e+000  1.544957e+001  1.444957e+001
      vertex  0.000000e+000  1.577535e+001  1.402500e+001
    endloop
  endfacet
  facet normal  0.000000e+000 -9.238795e-001 -3.826833e-001
    outer loop
      vertex  4.000000e+000  1.577535e+001  1.402500e+001
      vertex  0.000000e+000  1.577535e+001  1.402500e+001
      vertex  4.000000e+000  1.598015e+001  1.353058e+001
    endloop
  endfacet
  facet normal  -0.000000e+000 -9.238795e-001 -3.826833e-001
    outer loop
      vertex  4.000000e+000  1.598015e+001  1.353058e+001
      vertex  0.000000e+000  1.577535e+001  1.402500e+001
      vertex  0.000000e+000  1.598015e+001  1.353058e+001
    endloop
  endfacet
  facet normal  0.000000e+000 -9.914451e-001 -1.305242e-001
    outer loop
      vertex  4.000000e+000  1.598015e+001  1.353058e+001
      vertex  0.000000e+000  1.598015e+001  1.353058e+001
      vertex  4.000000e+000  1.605000e+001  1.300000e+001
    endloop
  endfacet
  facet normal  -0.000000e+000 -9.914451e-001 -1.305242e-001
    outer loop
      vertex  4.000000e+000  1.605000e+001  1.300000e+001
      vertex  0.000000e+000  1.598015e+001  1.353058e+001
      vertex  0.000000e+000  1.605000e+001  1.300000e+001
    endloop
  endfacet
  facet normal  0.000000e+000 -9.914451e-001  1.305242e-001
    outer loop
      vertex  4.000000e+000  1.605000e+001  1.300000e+001
      vertex  0.000000e+000  1.605000e+001  1.300000e+001
      vertex  4.000000e+000  1.598015e+001  1.246942e+001
    endloop
  endfacet
  facet normal  0.000000e+000 -9.914451e-001  1.305242e-001
    outer loop
      vertex  4.000000e+000  1.598015e+001  1.246942e+001
      vertex  0.000000e+000  1.605000e+001  1.300000e+001
      vertex  0.000000e+000  1.598015e+001  1.246942e+001
    endloop
  endfacet
  facet normal  0.000000e+000 -9.238795e-001  3.826833e-001
    outer loop
      vertex  4.000000e+000  1.598015e+001  1.246942e+001
      vertex  0.000000e+000  1.598015e+001  1.246942e+001
      vertex  4.000000e+000  1.577535e+001  1.197500e+001
    endloop
  endfacet
  facet normal  0.000000e+000 -9.238795e-001  3.826833e-001
    outer loop
      vertex  4.000000e+000  1.577535e+001  1.197500e+001
      vertex  0.000000e+000  1.598015e+001  1.246942e+001
      vertex  0.000000e+000  1.577535e+001  1.197500e+001
    endloop
  endfacet
  facet normal  0.000000e+000 -7.933530e-001  6.087618e-001
    outer loop
      vertex  4.000000e+000  1.577535e+001  1.197500e+001
      vertex  0.000000e+000  1.577535e+001  1.197500e+001
      vertex  4.000000e+000  1.544957e+001  1.155043e+001
    endloop
  endfacet
  facet normal  0.000000e+000 -7.933530e-001  6.087618e-001
    outer loop
      vertex  4.000000e+000  1.544957e+001  1.155043e+001
      vertex  0.000000e+000  1.577535e+001  1.197500e+001
      vertex  0.000000e+000  1.544957e+001  1.155043e+001
    endloop
  endfacet
  facet normal  0.000000e+000 -6.087618e-001  7.933530e-001
    outer loop
      vertex  4.000000e+000  1.544957e+001  1.155043e+001
      vertex  0.000000e+000  1.544957e+001  1.155043e+001
      vertex  4.000000e+000  1.502500e+001  1.122465e+001
    endloop
  endfacet
  facet normal  0.000000e+000 -6.087618e-001  7.933530e-001
    outer loop
      vertex  4.000000e+000  1.502500e+001  1.122465e+001
      vertex  0.000000e+000  1.544957e+001  1.155043e+001
      vertex  0.000000e+000  1.502500e+001  1.122465e+001
    endloop
  endfacet
  facet normal  0.000000e+000 -3.826833e-001  9.238795e-001
    outer loop
      vertex  4.000000e+000  1.502500e+001  1.122465e+001
      vertex  0.000000e+000  1.502500e+001  1.122465e+001
      vertex  4.000000e+000  1.453058e+001  1.101985e+001
    endloop
  endfacet
  facet normal  0.000000e+000 -3.826833e-001  9.238795e-001
    outer loop
      vertex  4.000000e+000  1.453058e+001  1.101985e+001
      vertex  0.000000e+000  1.502500e+001  1.122465e+001
      vertex  0.000000e+000  1.453058e+001  1.101985e+001
    endloop
  endfacet
  facet normal  0.000000e+000 -1.305260e-001  9.914448e-001
    outer loop
      vertex  4.000000e+000  1.453058e+001  1.101985e+001
      vertex  0.000000e+000  1.453058e+001  1.101985e+001
      vertex  4.000000e+000  1.400000e+001  1.095000e+001
    endloop
  endfacet
  facet normal  0.000000e+000 -1.305260e-001  9.914448e-001
    outer loop
      vertex  4.000000e+000  1.400000e+001  1.095000e+001
      vertex  0.000000e+000  1.453058e+001  1.101985e+001
      vertex  0.000000e+000  1.400000e+001  1.095000e+001
    endloop
  endfacet
  facet normal  -0.000000e+000  1.305260e-001  9.914448e-001
    outer loop
      vertex  4.000000e+000  1.400000e+001  1.095000e+001
      vertex  0.000000e+000  1.400000e+001  1.095000e+001
      vertex  4.000000e+000  1.346942e+001  1.101985e+001
    endloop
  endfacet
  facet normal  0.000000e+000  1.305260e-001  9.914448e-001
    outer loop
      vertex  4.000000e+000  1.346942e+001  1.101985e+001
      vertex  0.000000e+000  1.400000e+001  1.095000e+001
      vertex  0.000000e+000  1.346942e+001  1.101985e+001
    endloop
  endfacet
  facet normal  -0.000000e+000  3.826833e-001  9.238795e-001
    outer loop
      vertex  4.000000e+000  1.346942e+001  1.101985e+001
      vertex  0.000000e+000  1.346942e+001  1.101985e+001
      vertex  4.000000e+000  1.297500e+001  1.122465e+001
    endloop
  endfacet
  facet normal  0.000000e+000  3.826833e-001  9.238795e-001
    outer loop
      vertex  4.000000e+000  1.297500e+001  1.122465e+001
      vertex  0.000000e+000  1.346942e+001  1.101985e+001
      vertex  0.000000e+000  1.297500e+001  1.122465e+001
    endloop
  endfacet
  facet normal  -0.000000e+000  6.087618e-001  7.933530e-001
    outer loop
      vertex  4.000000e+000  1.297500e+001  1.122465e+001
      vertex  0.000000e+000  1.297500e+001  1.122465e+001
      vertex  4.000000e+000  1.255043e+001  1.155043e+001
    endloop
  endfacet
  facet normal  0.000000e+000  6.087618e-001  7.933530e-001
    outer loop
      vertex  4.000000e+000  1.255043e+001  1.155043e+001
      vertex  0.000000e+000  1.297500e+001  1.122465e+001
      vertex  0.000000e+000  1.255043e+001  1.155043e+001
    endloop
  endfacet
  facet normal  -0.000000e+000  7.933530e-001  6.087618e-001
    outer loop
      vertex  4.000000e+000  1.255043e+001  1.155043e+001
      vertex  0.000000e+000  1.255043e+001  1.155043e+001
      vertex  4.000000e+000  1.222465e+001  1.197500e+001
    endloop
  endfacet
  facet normal  0.000000e+000  7.933530e-001  6.087618e-001
    outer loop
      vertex  4.000000e+000  1.222465e+001  1.197500e+001
      vertex  0.000000e+000  1.255043e+001  1.155043e+001
      vertex  0.000000e+000  1.222465e+001  1.197500e+001
    endloop
  endfacet
  facet normal  -0.000000e+000  9.238795e-001  3.826833e-001
    outer loop
      vertex  4.000000e+000  1.222465e+001  1.197500e+001
      vertex  0.000000e+000  1.222465e+001  1.197500e+001
      vertex  4.000000e+000  1.201985e+001  1.246942e+001
    endloop
  endfacet
  facet normal  0.000000e+000  9.238795e-001  3.826833e-001
    outer loop
      vertex  4.000000e+000  1.201985e+001  1.246942e+001
      vertex  0.000000e+000  1.222465e+001  1.197500e+001
      vertex  0.000000e+000  1.201985e+001  1.246942e+001
    endloop
  endfacet
  facet normal  -0.000000e+000  9.914448e-001  1.305260e-001
    outer loop
      vertex  4.000000e+000  1.201985e+001  1.246942e+001
      vertex  0.000000e+000  1.201985e+001  1.246942e+001
      vertex  4.000000e+000  1.195000e+001  1.300000e+001
    endloop
  endfacet
  facet normal  0.000000e+000  9.914448e-001  1.305260e-001
    outer loop
      vertex  4.000000e+000  1.195000e+001  1.300000e+001
      vertex  0.000000e+000  1.201985e+001  1.246942e+001
      vertex  0.000000e+000  1.195000e+001  1.300000e+001
    endloop
  endfacet
  facet normal  0.000000e+000  9.914448e-001 -1.305260e-001
    outer loop
      vertex  4.000000e+000  1.195000e+001  2.800000e+001
      vertex  0.000000e+000  1.195000e+001  2.800000e+001
      vertex  4.000000e+000  1.201985e+001  2.853058e+001
    endloop
  endfacet
  facet normal  0.000000e+000  9.914448e-001 -1.305260e-001
    outer loop
      vertex  4.000000e+000  1.201985e+001  2.853058e+001
      vertex  0.000000e+000  1.195000e+001  2.800000e+001
      vertex  0.000000e+000  1.201985e+001  2.853058e+001
    endloop
  endfacet
  facet normal  0.000000e+000  9.238795e-001 -3.826833e-001
    outer loop
      vertex  4.000000e+000  1.201985e+001  2.853058e+001
      vertex  0.000000e+000  1.201985e+001  2.853058e+001
      vertex  4.000000e+000  1.222465e+001  2.902500e+001
    endloop
  endfacet
  facet normal  0.000000e+000  9.238795e-001 -3.826833e-001
    outer loop
      vertex  4.000000e+000  1.222465e+001  2.902500e+001
      vertex  0.000000e+000  1.201985e+001  2.853058e+001
      vertex  0.000000e+000  1.222465e+001  2.902500e+001
    endloop
  endfacet
  facet normal  0.000000e+000  7.933537e-001 -6.087610e-001
    outer loop
      vertex  4.000000e+000  1.222465e+001  2.902500e+001
      vertex  0.000000e+000  1.222465e+001  2.902500e+001
      vertex  4.000000e+000  1.255043e+001  2.944957e+001
    endloop
  endfacet
  facet normal  0.000000e+000  7.933537e-001 -6.087610e-001
    outer loop
      vertex  4.000000e+000  1.255043e+001  2.944957e+001
      vertex  0.000000e+000  1.222465e+001  2.902500e+001
      vertex  0.000000e+000  1.255043e+001  2.944957e+001
    endloop
  endfacet
  facet normal  0.000000e+000  6.087608e-001 -7.933539e-001
    outer loop
      vertex  4.000000e+000  1.255043e+001  2.944957e+001
      vertex  0.000000e+000  1.255043e+001  2.944957e+001
      vertex  4.000000e+000  1.297500e+001  2.977535e+001
    endloop
  endfacet
  facet normal  0.000000e+000  6.087608e-001 -7.933539e-001
    outer loop
      vertex  4.000000e+000  1.297500e+001  2.977535e+001
      vertex  0.000000e+000  1.255043e+001  2.944957e+001
      vertex  0.000000e+000  1.297500e+001  2.977535e+001
    endloop
  endfacet
  facet normal  0.000000e+000  3.826833e-001 -9.238795e-001
    outer loop
      vertex  4.000000e+000  1.297500e+001  2.977535e+001
      vertex  0.000000e+000  1.297500e+001  2.977535e+001
      vertex  4.000000e+000  1.346942e+001  2.998015e+001
    endloop
  endfacet
  facet normal  0.000000e+000  3.826833e-001 -9.238795e-001
    outer loop
      vertex  4.000000e+000  1.346942e+001  2.998015e+001
      vertex  0.000000e+000  1.297500e+001  2.977535e+001
      vertex  0.000000e+000  1.346942e+001  2.998015e+001
    endloop
  endfacet
  facet normal  0.000000e+000  1.305242e-001 -9.914451e-001
    outer loop
      vertex  4.000000e+000  1.346942e+001  2.998015e+001
      vertex  0.000000e+000  1.346942e+001  2.998015e+001
      vertex  4.000000e+000  1.400000e+001  3.005000e+001
    endloop
  endfacet
  facet normal  0.000000e+000  1.305242e-001 -9.914451e-001
    outer loop
      vertex  4.000000e+000  1.400000e+001  3.005000e+001
      vertex  0.000000e+000  1.346942e+001  2.998015e+001
      vertex  0.000000e+000  1.400000e+001  3.005000e+001
    endloop
  endfacet
  facet normal  0.000000e+000 -1.305242e-001 -9.914451e-001
    outer loop
      vertex  4.000000e+000  1.400000e+001  3.005000e+001
      vertex  0.000000e+000  1.400000e+001  3.005000e+001
      vertex  4.000000e+000  1.453058e+001  2.998015e+001
    endloop
  endfacet
  facet normal  -0.000000e+000 -1.305242e-001 -9.914451e-001
    outer loop
      vertex  4.000000e+000  1.453058e+001  2.998015e+001
      vertex  0.000000e+000  1.400000e+001  3.005000e+001
      vertex  0.000000e+000  1.453058e+001  2.998015e+001
    endloop
  endfacet
  facet normal  0.000000e+000 -3.826833e-001 -9.238795e-001
    outer loop
      vertex  4.000000e+000  1.453058e+001  2.998015e+001
      vertex  0.000000e+000  1.453058e+001  2.998015e+001
      vertex  4.000000e+000  1.502500e+001  2.977535e+001
    endloop
  endfacet
  facet normal  -0.000000e+000 -3.826833e-001 -9.238795e-001
    outer loop
      vertex  4.000000e+000  1.502500e+001  2.977535e+001
      vertex  0.000000e+000  1.453058e+001  2.998015e+001
      vertex  0.000000e+000  1.502500e+001  2.977535e+001
    endloop
  endfacet
  facet normal  0.000000e+000 -6.087608e-001 -7.933539e-001
    outer loop
      vertex  4.000000e+000  1.502500e+001  2.977535e+001
      vertex  0.000000e+000  1.502500e+001  2.977535e+001
      vertex  4.000000e+000  1.544957e+001  2.944957e+001
    endloop
  endfacet
  facet normal  -0.000000e+000 -6.087608e-001 -7.933539e-001
    outer loop
      vertex  4.000000e+000  1.544957e+001  2.944957e+001
      vertex  0.000000e+000  1.502500e+001  2.977535e+001
      vertex  0.000000e+000  1.544957e+001  2.944957e+001
    endloop
  endfacet
  facet normal  0.000000e+000 -7.933537e-001 -6.087610e-001
    outer loop
      vertex  4.000000e+000  1.544957e+001  2.944957e+001
      vertex  0.000000e+000  1.544957e+001  2.944957e+001
      vertex  4.000000e+000  1.577535e+001  2.902500e+001
    endloop
  endfacet
  facet normal  -0.000000e+000 -7.933537e-001 -6.087610e-001
    outer loop
      vertex  4.000000e+000  1.577535e+001  2.902500e+001
      vertex  0.000000e+000  1.544957e+001  2.944957e+001
      vertex  0.000000e+000  1.577535e+001  2.902500e+001
    endloop
  endfacet
  facet normal  0.000000e+000 -9.238795e-001 -3.826833e-001
    outer loop
      vertex  4.000000e+000  1.577535e+001  2.902500e+001
      vertex  0.000000e+000  1.577535e+001  2.902500e+001
      vertex  4.000000e+000  1.598015e+001  2.853058e+001
    endloop
  endfacet
  facet normal  -0.000000e+000 -9.238795e-001 -3.826833e-001
    outer loop
      vertex  4.000000e+000  1.598015e+001  2.853058e+001
      vertex  0.000000e+000  1.577535e+001  2.902500e+001
      vertex  0.000000e+000  1.598015e+001  2.853058e+001
    endloop
  endfacet
  facet normal  0.000000e+000 -9.914451e-001 -1.305242e-001
    outer loop
      vertex  4.000000e+000  1.598015e+001  2.853058e+001
      vertex  0.000000e+000  1.598015e+001  2.853058e+001
      vertex  4.000000e+000  1.605000e+001  2.800000e+001
    endloop
  endfacet
  facet normal  -0.000000e+000 -9.914451e-001 -1.305242e-001
    outer loop
      vertex  4.000000e+000  1.605000e+001  2.800000e+001
      vertex  0.000000e+000  1.598015e+001  2.853058e+001
      vertex  0.000000e+000  1.605000e+001  2.800000e+001
    endloop
  endfacet
  facet normal  0.000000e+000 -9.914451e-001  1.305242e-001
    outer loop
      vertex  4.000000e+000  1.605000e+001  2.800000e+001
      vertex  0.000000e+000  1.605000e+001  2.800000e+001
      vertex  4.000000e+000  1.598015e+001  2.746942e+001
    endloop
  endfacet
  facet normal  0.000000e+000 -9.914451e-001  1.305242e-001
    outer loop
      vertex  4.000000e+000  1.598015e+001  2.746942e+001
      vertex  0.000000e+000  1.605000e+001  2.800000e+001
      vertex  0.000000e+000  1.598015e+001  2.746942e+001
    endloop
  endfacet
  facet normal  0.000000e+000 -9.238795e-001  3.826833e-001
    outer loop
      vertex  4.000000e+000  1.598015e+001  2.746942e+001
      vertex  0.000000e+000  1.598015e+001  2.746942e+001
      vertex  4.000000e+000  1.577535e+001  2.697500e+001
    endloop
  endfacet
  facet normal  0.000000e+000 -9.238795e-001  3.826833e-001
    outer loop
      vertex  4.000000e+000  1.577535e+001  2.697500e+001
      vertex  0.000000e+000  1.598015e+001  2.746942e+001
      vertex  0.000000e+000  1.577535e+001  2.697500e+001
    endloop
  endfacet
  facet normal  0.000000e+000 -7.933537e-001  6.087610e-001
    outer loop
      vertex  4.000000e+000  1.577535e+001  2.697500e+001
      vertex  0.000000e+000  1.577535e+001  2.697500e+001
      vertex  4.000000e+000  1.544957e+001  2.655043e+001
    endloop
  endfacet
  facet normal  0.000000e+000 -7.933537e-001  6.087610e-001
    outer loop
      vertex  4.000000e+000  1.544957e+001  2.655043e+001
      vertex  0.000000e+000  1.577535e+001  2.697500e+001
      vertex  0.000000e+000  1.544957e+001  2.655043e+001
    endloop
  endfacet
  facet normal  0.000000e+000 -6.087608e-001  7.933539e-001
    outer loop
      vertex  4.000000e+000  1.544957e+001  2.655043e+001
      vertex  0.000000e+000  1.544957e+001  2.655043e+001
      vertex  4.000000e+000  1.502500e+001  2.622465e+001
    endloop
  endfacet
  facet normal  0.000000e+000 -6.087608e-001  7.933539e-001
    outer loop
      vertex  4.000000e+000  1.502500e+001  2.622465e+001
      vertex  0.000000e+000  1.544957e+001  2.655043e+001
      vertex  0.000000e+000  1.502500e+001  2.622465e+001
    endloop
  endfacet
  facet normal  0.000000e+000 -3.826833e-001  9.238795e-001
    outer loop
      vertex  4.000000e+000  1.502500e+001  2.622465e+001
      vertex  0.000000e+000  1.502500e+001  2.622465e+001
      vertex  4.000000e+000  1.453058e+001  2.601985e+001
    endloop
  endfacet
  facet normal  0.000000e+000 -3.826833e-001  9.238795e-001
    outer loop
      vertex  4.000000e+000  1.453058e+001  2.601985e+001
      vertex  0.000000e+000  1.502500e+001  2.622465e+001
      vertex  0.000000e+000  1.453058e+001  2.601985e+001
    endloop
  endfacet
  facet normal  0.000000e+000 -1.305242e-001  9.914451e-001
    outer loop
      vertex  4.000000e+000  1.453058e+001  2.601985e+001
      vertex  0.000000e+000  1.453058e+001  2.601985e+001
      vertex  4.000000e+000  1.400000e+001  2.595000e+001
    endloop
  endfacet
  facet normal  0.000000e+000 -1.305242e-001  9.914451e-001
    outer loop
      vertex  4.000000e+000  1.400000e+001  2.595000e+001
      vertex  0.000000e+000  1.453058e+001  2.601985e+001
      vertex  0.000000e+000  1.400000e+001  2.595000e+001
    endloop
  endfacet
  facet normal  -0.000000e+000  1.305242e-001  9.914451e-001
    outer loop
      vertex  4.000000e+000  1.400000e+001  2.595000e+001
      vertex  0.000000e+000  1.400000e+001  2.595000e+001
      vertex  4.000000e+000  1.346942e+001  2.601985e+001
    endloop
  endfacet
  facet normal  0.000000e+000  1.305242e-001  9.914451e-001
    outer loop
      vertex  4.000000e+000  1.346942e+001  2.601985e+001
      vertex  0.000000e+000  1.400000e+001  2.595000e+001
      vertex  0.000000e+000  1.346942e+001  2.601985e+001
    endloop
  endfacet
  facet normal  -0.000000e+000  3.826833e-001  9.238795e-001
    outer loop
      vertex  4.000000e+000  1.346942e+001  2.601985e+001
      vertex  0.000000e+000  1.346942e+001  2.601985e+001
      vertex  4.000000e+000  1.297500e+001  2.622465e+001
    endloop
  endfacet
  facet normal  0.000000e+000  3.826833e-001  9.238795e-001
    outer loop
      vertex  4.000000e+000  1.297500e+001  2.622465e+001
      vertex  0.000000e+000  1.346942e+001  2.601985e+001
      vertex  0.000000e+000  1.297500e+001  2.622465e+001
    endloop
  endfacet
  facet normal  -0.000000e+000  6.087608e-001  7.933539e-001
    outer loop
      vertex  4.000000e+000  1.297500e+001  2.622465e+001
      vertex  0.000000e+000  1.297500e+001  2.622465e+001
      vertex  4.000000e+000  1.255043e+001  2.655043e+001
    endloop
  endfacet
  facet normal  0.000000e+000  6.087608e-001  7.933539e-001
    outer loop
      vertex  4.000000e+000  1.255043e+001  2.655043e+001
      vertex  0.000000e+000  1.297500e+001  2.622465e+001
      vertex  0.000000e+000  1.255043e+001  2.655043e+001
    endloop
  endfacet
  facet normal  -0.000000e+000  7.933537e-001  6.087610e-001
    outer loop
      vertex  4.000000e+000  1.255043e+001  2.655043e+001
      vertex  0.000000e+000  1.255043e+001  2.655043e+001
      vertex  4.000000e+000  1.222465e+001  2.697500e+001
    endloop
  endfacet
  facet normal  0.000000e+000  7.933537e-001  6.087610e-001
    outer loop
      vertex  4.000000e+000  1.222465e+001  2.697500e+001
      vertex  0.000000e+000  1.255043e+001  2.655043e+001
      vertex  0.000000e+000  1.222465e+001  2.697500e+001
    endloop
  endfacet
  facet normal  -0.000000e+000  9.238795e-001  3.826833e-001
    outer loop
      vertex  4.000000e+000  1.222465e+001  2.697500e+001
      vertex  0.000000e+000  1.222465e+001  2.697500e+001
      vertex  4.000000e+000  1.201985e+001  2.746942e+001
    endloop
  endfacet
  facet normal  0.000000e+000  9.238795e-001  3.826833e-001
    outer loop
      vertex  4.000000e+000  1.201985e+001  2.746942e+001
      vertex  0.000000e+000  1.222465e+001  2.697500e+001
      vertex  0.000000e+000  1.201985e+001  2.746942e+001
    endloop
  endfacet
  facet normal  -0.000000e+000  9.914448e-001  1.305260e-001
    outer loop
      vertex  4.000000e+000  1.201985e+001  2.746942e+001
      vertex  0.000000e+000  1.201985e+001  2.746942e+001
      vertex  4.000000e+000  1.195000e+001  2.800000e+001
    endloop
  endfacet
  facet normal  0.000000e+000  9.914448e-001  1.305260e-001
    outer loop
      vertex  4.000000e+000  1.195000e+001  2.800000e+001
      vertex  0.000000e+000  1.201985e+001  2.746942e+001
      vertex  0.000000e+000  1.195000e+001  2.800000e+001
    endloop
  endfacet
  facet normal  -0.000000e+000  0.000000e+000  1.000000e+000
    outer loop
      vertex  4.000000e+000  2.800000e+001  3.700000e+001
      vertex  0.000000e+000  2.800000e+001  3.700000e+001
      vertex  4.000000e+000  1.421085e-014  3.700000e+001
    endloop
  endfacet
  facet normal  0.000000e+000  0.000000e+000  1.000000e+000
    outer loop
      vertex  4.000000e+000  1.421085e-014  3.700000e+001
      vertex  0.000000e+000  2.800000e+001  3.700000e+001
      vertex  0.000000e+000  1.421085e-014  3.700000e+001
    endloop
  endfacet
endsolid CATIA STL
